<svg xmlns="http://www.w3.org/2000/svg" xmlns:xlink="http://www.w3.org/1999/xlink" width="100" zoomAndPan="magnify" viewBox="0 0 75 30.000001" height="40" preserveAspectRatio="xMidYMid meet" version="1.0"><defs><g/><clipPath id="83908bdd75"><path d="M 5.296875 2.902344 L 10 2.902344 L 10 13 L 5.296875 13 Z M 5.296875 2.902344 " clip-rule="nonzero"/></clipPath><clipPath id="63f00682b2"><path d="M 10 2.902344 L 33.605469 2.902344 L 33.605469 14.515625 L 10 14.515625 Z M 10 2.902344 " clip-rule="nonzero"/></clipPath></defs><g fill="#ffffff" fill-opacity="1"><g transform="translate(18.255776, 19.795652)"><g><path d="M 3.765625 0 C 3.316406 0 2.894531 -0.078125 2.5 -0.234375 C 2.101562 -0.398438 1.75 -0.628906 1.4375 -0.921875 C 1.132812 -1.222656 0.890625 -1.566406 0.703125 -1.953125 C 0.515625 -2.335938 0.410156 -2.753906 0.390625 -3.203125 L 0.390625 -3.59375 C 0.429688 -4.4375 0.769531 -5.175781 1.40625 -5.8125 C 1.71875 -6.113281 2.078125 -6.347656 2.484375 -6.515625 C 2.890625 -6.691406 3.316406 -6.78125 3.765625 -6.78125 C 4.160156 -6.78125 4.539062 -6.710938 4.90625 -6.578125 C 5.269531 -6.460938 5.535156 -6.414062 5.703125 -6.4375 C 5.878906 -6.46875 5.972656 -6.554688 5.984375 -6.703125 L 6.046875 -6.703125 L 6.046875 -4.875 L 5.984375 -4.875 C 5.972656 -5.289062 5.851562 -5.632812 5.625 -5.90625 C 5.40625 -6.175781 5.082031 -6.382812 4.65625 -6.53125 C 4.457031 -6.59375 4.273438 -6.632812 4.109375 -6.65625 C 3.953125 -6.675781 3.835938 -6.6875 3.765625 -6.6875 C 3.671875 -6.6875 3.546875 -6.664062 3.390625 -6.625 C 3.242188 -6.582031 3.085938 -6.5 2.921875 -6.375 C 2.753906 -6.25 2.597656 -6.066406 2.453125 -5.828125 C 2.304688 -5.585938 2.1875 -5.269531 2.09375 -4.875 C 2 -4.476562 1.953125 -3.984375 1.953125 -3.390625 C 1.953125 -2.796875 2 -2.296875 2.09375 -1.890625 C 2.1875 -1.492188 2.304688 -1.175781 2.453125 -0.9375 C 2.597656 -0.695312 2.753906 -0.515625 2.921875 -0.390625 C 3.085938 -0.273438 3.242188 -0.195312 3.390625 -0.15625 C 3.546875 -0.113281 3.671875 -0.09375 3.765625 -0.09375 C 3.921875 -0.09375 4.101562 -0.113281 4.3125 -0.15625 C 4.53125 -0.207031 4.710938 -0.265625 4.859375 -0.328125 L 4.859375 -2.140625 C 4.847656 -2.398438 4.757812 -2.597656 4.59375 -2.734375 C 4.4375 -2.867188 4.234375 -2.9375 3.984375 -2.9375 L 3.984375 -3 L 7.3125 -3 L 7.3125 -2.9375 C 7.050781 -2.9375 6.84375 -2.863281 6.6875 -2.71875 C 6.53125 -2.582031 6.445312 -2.394531 6.4375 -2.15625 L 6.4375 -0.0625 L 6.359375 -0.0625 C 6.359375 -0.164062 6.285156 -0.238281 6.140625 -0.28125 C 5.992188 -0.320312 5.8125 -0.332031 5.59375 -0.3125 C 5.375 -0.300781 5.144531 -0.265625 4.90625 -0.203125 C 4.539062 -0.0664062 4.160156 0 3.765625 0 Z M 3.765625 0 "/></g></g></g><g fill="#ffffff" fill-opacity="1"><g transform="translate(26.353931, 19.795652)"><g><path d="M 0.484375 -1.703125 L 0.484375 -2.265625 L 2.34375 -2.265625 L 2.34375 -1.703125 Z M 0.484375 -1.703125 "/></g></g></g><g fill="#ffffff" fill-opacity="1"><g transform="translate(29.574608, 19.795652)"><g><path d="M 0.40625 -0.0625 C 0.71875 -0.0703125 0.992188 -0.140625 1.234375 -0.265625 C 1.472656 -0.398438 1.695312 -0.601562 1.90625 -0.875 L 3.390625 -2.828125 L 1.53125 -5.765625 C 1.34375 -6.054688 1.160156 -6.265625 0.984375 -6.390625 C 0.804688 -6.523438 0.609375 -6.59375 0.390625 -6.59375 L 0.390625 -6.671875 L 3.53125 -6.671875 L 3.53125 -6.59375 C 3.09375 -6.59375 3.046875 -6.316406 3.390625 -5.765625 L 4.421875 -4.15625 L 5.65625 -5.765625 C 5.882812 -6.054688 5.972656 -6.265625 5.921875 -6.390625 C 5.878906 -6.523438 5.71875 -6.59375 5.4375 -6.59375 L 5.4375 -6.671875 L 7.265625 -6.671875 L 7.265625 -6.59375 C 6.960938 -6.601562 6.679688 -6.53125 6.421875 -6.375 C 6.171875 -6.226562 5.945312 -6.023438 5.75 -5.765625 L 4.453125 -4.09375 L 6.484375 -0.875 C 6.671875 -0.59375 6.847656 -0.390625 7.015625 -0.265625 C 7.191406 -0.140625 7.378906 -0.0703125 7.578125 -0.0625 L 7.578125 0 L 4.4375 0 L 4.4375 -0.0625 C 4.664062 -0.0703125 4.796875 -0.140625 4.828125 -0.265625 C 4.859375 -0.398438 4.789062 -0.601562 4.625 -0.875 L 3.4375 -2.765625 L 2 -0.875 L 1.90625 -0.765625 C 1.75 -0.523438 1.703125 -0.347656 1.765625 -0.234375 C 1.835938 -0.117188 1.992188 -0.0625 2.234375 -0.0625 L 2.234375 0 L 0.40625 0 Z M 0.40625 -0.0625 "/></g></g></g><g fill="#ffffff" fill-opacity="1"><g transform="translate(37.928246, 19.795652)"><g><path d="M 0.390625 -0.0625 C 0.671875 -0.0703125 0.890625 -0.148438 1.046875 -0.296875 C 1.210938 -0.441406 1.296875 -0.640625 1.296875 -0.890625 L 1.296875 -5.78125 C 1.296875 -5.957031 1.265625 -6.097656 1.203125 -6.203125 C 1.140625 -6.304688 1.0625 -6.382812 0.96875 -6.4375 C 0.882812 -6.5 0.796875 -6.539062 0.703125 -6.5625 C 0.609375 -6.582031 0.535156 -6.59375 0.484375 -6.59375 L 0.390625 -6.59375 L 0.390625 -6.671875 L 3.734375 -6.671875 C 4.046875 -6.671875 4.347656 -6.640625 4.640625 -6.578125 C 4.929688 -6.515625 5.191406 -6.414062 5.421875 -6.28125 C 5.648438 -6.144531 5.832031 -5.960938 5.96875 -5.734375 C 6.101562 -5.515625 6.171875 -5.253906 6.171875 -4.953125 C 6.171875 -4.703125 6.101562 -4.46875 5.96875 -4.25 C 5.832031 -4.03125 5.660156 -3.84375 5.453125 -3.6875 C 5.242188 -3.53125 5.007812 -3.40625 4.75 -3.3125 C 4.5 -3.226562 4.253906 -3.1875 4.015625 -3.1875 L 2.90625 -3.1875 L 2.90625 -0.890625 C 2.90625 -0.640625 2.984375 -0.441406 3.140625 -0.296875 C 3.304688 -0.148438 3.53125 -0.0703125 3.8125 -0.0625 L 3.8125 0 L 0.390625 0 Z M 3.734375 -3.265625 C 3.921875 -3.265625 4.078125 -3.335938 4.203125 -3.484375 C 4.328125 -3.640625 4.421875 -3.84375 4.484375 -4.09375 C 4.554688 -4.351562 4.59375 -4.640625 4.59375 -4.953125 C 4.59375 -5.265625 4.554688 -5.546875 4.484375 -5.796875 C 4.421875 -6.046875 4.328125 -6.238281 4.203125 -6.375 C 4.078125 -6.519531 3.921875 -6.59375 3.734375 -6.59375 L 2.90625 -6.59375 L 2.90625 -3.265625 Z M 3.734375 -3.265625 "/></g></g></g><g fill="#ffffff" fill-opacity="1"><g transform="translate(44.872841, 19.795652)"><g><path d="M 0.390625 -0.0625 C 0.671875 -0.0625 0.890625 -0.132812 1.046875 -0.28125 C 1.210938 -0.4375 1.296875 -0.640625 1.296875 -0.890625 L 1.296875 -5.78125 C 1.296875 -6.039062 1.210938 -6.238281 1.046875 -6.375 C 0.890625 -6.519531 0.671875 -6.59375 0.390625 -6.59375 L 0.390625 -6.671875 L 5.640625 -6.671875 L 5.90625 -4.953125 L 5.84375 -4.921875 L 5.8125 -5.0625 C 5.800781 -5.132812 5.769531 -5.234375 5.71875 -5.359375 C 5.664062 -5.492188 5.585938 -5.628906 5.484375 -5.765625 C 5.390625 -5.910156 5.253906 -6.046875 5.078125 -6.171875 C 4.898438 -6.296875 4.679688 -6.394531 4.421875 -6.46875 C 4.160156 -6.550781 3.84375 -6.59375 3.46875 -6.59375 L 2.90625 -6.59375 L 2.90625 -3.53125 L 4.0625 -3.53125 C 4.238281 -3.539062 4.378906 -3.578125 4.484375 -3.640625 C 4.585938 -3.710938 4.664062 -3.796875 4.71875 -3.890625 C 4.769531 -3.984375 4.800781 -4.070312 4.8125 -4.15625 C 4.832031 -4.25 4.84375 -4.320312 4.84375 -4.375 L 4.84375 -4.40625 L 4.90625 -4.40625 L 4.90625 -2.578125 L 4.84375 -2.578125 L 4.84375 -2.625 C 4.84375 -2.664062 4.832031 -2.726562 4.8125 -2.8125 C 4.800781 -2.90625 4.769531 -3 4.71875 -3.09375 C 4.664062 -3.195312 4.585938 -3.28125 4.484375 -3.34375 C 4.378906 -3.414062 4.238281 -3.457031 4.0625 -3.46875 L 2.90625 -3.46875 L 2.90625 -0.890625 C 2.90625 -0.640625 2.984375 -0.4375 3.140625 -0.28125 C 3.304688 -0.132812 3.53125 -0.0625 3.8125 -0.0625 C 4.476562 -0.0625 5.035156 -0.203125 5.484375 -0.484375 C 5.929688 -0.765625 6.242188 -1.1875 6.421875 -1.75 L 6.5 -1.75 L 5.984375 0 L 0.390625 0 Z M 0.390625 -0.0625 "/></g></g></g><g fill="#ffffff" fill-opacity="1"><g transform="translate(52.150334, 19.795652)"><g><path d="M 0.390625 -0.0625 C 0.671875 -0.0625 0.890625 -0.128906 1.046875 -0.265625 C 1.210938 -0.398438 1.296875 -0.609375 1.296875 -0.890625 L 1.296875 -5.78125 C 1.296875 -5.957031 1.265625 -6.097656 1.203125 -6.203125 C 1.140625 -6.304688 1.0625 -6.382812 0.96875 -6.4375 C 0.882812 -6.5 0.796875 -6.539062 0.703125 -6.5625 C 0.609375 -6.582031 0.535156 -6.59375 0.484375 -6.59375 L 0.390625 -6.59375 L 0.390625 -6.671875 L 3.734375 -6.671875 C 4.046875 -6.671875 4.347656 -6.640625 4.640625 -6.578125 C 4.929688 -6.515625 5.191406 -6.414062 5.421875 -6.28125 C 5.648438 -6.144531 5.832031 -5.960938 5.96875 -5.734375 C 6.101562 -5.515625 6.171875 -5.253906 6.171875 -4.953125 C 6.171875 -4.609375 6.082031 -4.316406 5.90625 -4.078125 C 5.738281 -3.847656 5.519531 -3.664062 5.25 -3.53125 C 4.988281 -3.394531 4.703125 -3.300781 4.390625 -3.25 C 4.753906 -3.226562 5.046875 -3.164062 5.265625 -3.0625 C 5.484375 -2.96875 5.664062 -2.804688 5.8125 -2.578125 C 5.957031 -2.359375 6.09375 -2.046875 6.21875 -1.640625 C 6.351562 -1.234375 6.484375 -0.914062 6.609375 -0.6875 C 6.742188 -0.457031 6.890625 -0.296875 7.046875 -0.203125 C 7.210938 -0.109375 7.410156 -0.0625 7.640625 -0.0625 L 7.640625 0 L 6.25 0 C 5.957031 0 5.675781 -0.117188 5.40625 -0.359375 C 5.132812 -0.609375 4.878906 -1.035156 4.640625 -1.640625 C 4.523438 -1.941406 4.441406 -2.191406 4.390625 -2.390625 C 4.335938 -2.585938 4.289062 -2.742188 4.25 -2.859375 C 4.207031 -2.984375 4.148438 -3.066406 4.078125 -3.109375 C 4.015625 -3.160156 3.914062 -3.1875 3.78125 -3.1875 L 2.90625 -3.1875 L 2.90625 -0.875 C 2.90625 -0.601562 2.96875 -0.398438 3.09375 -0.265625 C 3.226562 -0.128906 3.441406 -0.0625 3.734375 -0.0625 L 3.734375 0 L 0.390625 0 Z M 3.734375 -3.265625 C 3.921875 -3.265625 4.078125 -3.335938 4.203125 -3.484375 C 4.328125 -3.640625 4.421875 -3.84375 4.484375 -4.09375 C 4.554688 -4.351562 4.59375 -4.640625 4.59375 -4.953125 C 4.59375 -5.265625 4.554688 -5.546875 4.484375 -5.796875 C 4.421875 -6.046875 4.328125 -6.238281 4.203125 -6.375 C 4.078125 -6.519531 3.921875 -6.59375 3.734375 -6.59375 L 2.90625 -6.59375 L 2.90625 -3.265625 Z M 3.734375 -3.265625 "/></g></g></g><g fill="#ffffff" fill-opacity="1"><g transform="translate(60.573649, 19.795652)"><g><path d="M 1.984375 -0.0625 C 2.265625 -0.0625 2.488281 -0.132812 2.65625 -0.28125 C 2.820312 -0.4375 2.90625 -0.640625 2.90625 -0.890625 L 2.90625 -6.59375 L 2.828125 -6.59375 C 2.453125 -6.59375 2.128906 -6.550781 1.859375 -6.46875 C 1.597656 -6.394531 1.378906 -6.296875 1.203125 -6.171875 C 1.035156 -6.046875 0.898438 -5.910156 0.796875 -5.765625 C 0.691406 -5.628906 0.613281 -5.492188 0.5625 -5.359375 C 0.519531 -5.234375 0.488281 -5.132812 0.46875 -5.0625 L 0.453125 -4.921875 L 0.390625 -4.953125 L 0.65625 -6.671875 L 6.75 -6.671875 L 7 -4.953125 L 6.953125 -4.921875 L 6.921875 -5.0625 C 6.910156 -5.132812 6.878906 -5.234375 6.828125 -5.359375 C 6.773438 -5.492188 6.695312 -5.628906 6.59375 -5.765625 C 6.488281 -5.910156 6.347656 -6.046875 6.171875 -6.171875 C 6.003906 -6.296875 5.789062 -6.394531 5.53125 -6.46875 C 5.269531 -6.550781 4.953125 -6.59375 4.578125 -6.59375 L 4.5 -6.59375 L 4.5 -0.890625 C 4.5 -0.640625 4.578125 -0.4375 4.734375 -0.28125 C 4.898438 -0.132812 5.125 -0.0625 5.40625 -0.0625 L 5.40625 0 L 1.984375 0 Z M 1.984375 -0.0625 "/></g></g></g><g clip-path="url(#83908bdd75)"><path fill="#ffffff" d="M 9.679688 2.902344 L 6.417969 12.105469 L 5.300781 11.8125 Z M 9.679688 2.902344 " fill-opacity="1" fill-rule="evenodd"/></g><path fill="#ffffff" d="M 7.082031 12.851562 L 6.523438 12.851562 L 8.90625 7.226562 Z M 7.082031 12.851562 " fill-opacity="1" fill-rule="evenodd"/><path fill="#ffffff" d="M 9.125 7.910156 L 7.933594 13.703125 L 7.445312 13.703125 Z M 9.125 7.910156 " fill-opacity="1" fill-rule="evenodd"/><path fill="#ffffff" d="M 9.691406 8.871094 L 10.289062 8.871094 L 10.289062 10.058594 L 9.691406 10.058594 Z M 9.691406 8.871094 " fill-opacity="1" fill-rule="evenodd"/><path fill="#ffffff" d="M 10.683594 8.871094 L 11.277344 8.871094 L 11.277344 10.058594 L 10.683594 10.058594 Z M 10.683594 8.871094 " fill-opacity="1" fill-rule="evenodd"/><path fill="#ffffff" d="M 9.691406 7.386719 L 10.289062 7.386719 L 10.289062 8.574219 L 9.691406 8.574219 Z M 9.691406 7.386719 " fill-opacity="1" fill-rule="evenodd"/><path fill="#ffffff" d="M 10.683594 7.386719 L 11.277344 7.386719 L 11.277344 8.574219 L 10.683594 8.574219 Z M 10.683594 7.386719 " fill-opacity="1" fill-rule="evenodd"/><g clip-path="url(#63f00682b2)"><path fill="#0cc0df" d="M 30.816406 11.867188 L 15.628906 11.867188 L 10.007812 2.925781 L 28.214844 2.925781 L 29.03125 4.34375 L 22.835938 4.34375 L 24.34375 5.433594 L 23.988281 6.339844 L 30.183594 6.339844 L 33.375 11.867188 L 31.742188 11.867188 L 32.742188 13.597656 L 30.519531 13.597656 L 31.242188 14.84375 L 13.671875 14.84375 L 12.953125 11.273438 L 14.207031 14.210938 L 29.949219 14.210938 L 29.59375 13.597656 L 14.527344 13.597656 L 12.289062 8.484375 L 15.0625 12.964844 L 31.453125 12.964844 Z M 30.816406 11.867188 " fill-opacity="1" fill-rule="evenodd"/></g></svg>