<svg width="20" height="20" viewBox="0 0 20 20" fill="none" xmlns="http://www.w3.org/2000/svg">
<g id="solar:star-bold-duotone">
<path id="Vector" d="M15.4025 13.9725C14.2635 14.246 13.0744 14.2328 11.9417 13.9339C10.8091 13.6351 9.76824 13.0601 8.91237 12.2603C8.05651 11.4605 7.41235 10.4609 7.0376 9.35105C6.66284 8.24121 6.56918 7.05575 6.765 5.90083C6.73567 5.93008 6.70419 5.9571 6.67084 5.98167C6.4375 6.15917 6.14584 6.225 5.5625 6.35667L5.03334 6.47667C2.98334 6.94083 1.95834 7.1725 1.71417 7.95667C1.47084 8.74 2.16917 9.5575 3.56667 11.1917L3.92834 11.6142C4.325 12.0783 4.52417 12.3108 4.61334 12.5975C4.7025 12.885 4.6725 13.195 4.6125 13.8142L4.5575 14.3783C4.34667 16.5592 4.24084 17.6492 4.87917 18.1333C5.5175 18.6175 6.4775 18.1767 8.39584 17.2925L8.89334 17.0642C9.43834 16.8125 9.71084 16.6875 10 16.6875C10.2892 16.6875 10.5617 16.8125 11.1075 17.0642L11.6033 17.2925C13.5225 18.1758 14.4825 18.6175 15.12 18.1342C15.7592 17.6492 15.6533 16.5592 15.4425 14.3783L15.4025 13.9725Z" fill="#0FA958"/>
<path id="Vector_2" opacity="0.5" d="M7.62749 4.50667L7.35416 4.99667C7.05416 5.535 6.90416 5.80417 6.67083 5.98167C6.70416 5.95667 6.73555 5.92972 6.76499 5.90083C6.56912 7.05584 6.66278 8.2414 7.03757 9.35132C7.41237 10.4612 8.05661 11.4609 8.91258 12.2607C9.76855 13.0605 10.8095 13.6356 11.9423 13.9343C13.0751 14.233 14.2642 14.2462 15.4033 13.9725L15.3867 13.8142C15.3275 13.195 15.2975 12.885 15.3867 12.5975C15.4758 12.3108 15.6742 12.0783 16.0717 11.6142L16.4333 11.1917C17.8308 9.55833 18.5292 8.74083 18.285 7.95667C18.0417 7.1725 17.0167 6.94 14.9667 6.47667L14.4367 6.35667C13.8542 6.225 13.5625 6.15917 13.3283 5.98167C13.095 5.80417 12.945 5.535 12.645 4.99667L12.3725 4.50667C11.3167 2.61333 10.7892 1.66667 9.99999 1.66667C9.21083 1.66667 8.68333 2.61333 7.62749 4.50667Z" fill="#69DDA0"/>
</g>
</svg>
