<svg width="24" height="24" viewBox="0 0 24 24" fill="none" xmlns="http://www.w3.org/2000/svg">
<g id="Group">
<path id="Vector" d="M18.375 0H5.625C2.5184 0 0 2.5184 0 5.625V18.375C0 21.4816 2.5184 24 5.625 24H18.375C21.4816 24 24 21.4816 24 18.375V5.625C24 2.5184 21.4816 0 18.375 0Z" fill="white"/>
<path id="Vector_2" d="M18.375 0H5.625C2.5184 0 0 2.5184 0 5.625V18.375C0 21.4816 2.5184 24 5.625 24H18.375C21.4816 24 24 21.4816 24 18.375V5.625C24 2.5184 21.4816 0 18.375 0Z" fill="#0A66C2"/>
<path id="Vector_3" d="M16.2536 17.9625H18.4489C18.5284 17.9625 18.6047 17.9287 18.661 17.8686C18.7172 17.8085 18.7489 17.727 18.7489 17.642L18.75 12.686C18.75 10.0956 18.2276 8.10453 15.3946 8.10453C14.3177 8.06173 13.3021 8.65493 12.7541 9.64547C12.7514 9.65028 12.7474 9.65402 12.7425 9.65612C12.7377 9.65822 12.7323 9.65857 12.7272 9.65711C12.7222 9.65565 12.7177 9.65245 12.7145 9.64802C12.7113 9.64359 12.7095 9.63816 12.7095 9.63256V8.66423C12.7095 8.57921 12.6779 8.49767 12.6216 8.43756C12.5654 8.37744 12.4891 8.34367 12.4095 8.34367H10.3262C10.2467 8.34367 10.1704 8.37744 10.1141 8.43756C10.0578 8.49767 10.0262 8.57921 10.0262 8.66423V17.6415C10.0262 17.7266 10.0578 17.8081 10.1141 17.8682C10.1704 17.9283 10.2467 17.9621 10.3262 17.9621H12.5213C12.6009 17.9621 12.6772 17.9283 12.7335 17.8682C12.7897 17.8081 12.8213 17.7266 12.8213 17.6415V13.2039C12.8213 11.9492 13.0441 10.734 14.4999 10.734C15.935 10.734 15.9536 12.1698 15.9536 13.2852V17.6419C15.9536 17.727 15.9852 17.8085 16.0415 17.8686C16.0978 17.9287 16.1741 17.9625 16.2536 17.9625ZM5.25 5.29577C5.25 6.24656 5.98253 7.02889 6.8724 7.02889C7.76205 7.02881 8.49412 6.246 8.49412 5.29537C8.49397 4.34475 7.76183 3.5625 6.8721 3.5625C5.98215 3.5625 5.25 4.34499 5.25 5.29577ZM5.77192 17.9625H7.96995C8.04952 17.9625 8.12582 17.9287 8.18208 17.8686C8.23834 17.8085 8.26995 17.727 8.26995 17.6419V8.66423C8.26995 8.57921 8.23834 8.49767 8.18208 8.43756C8.12582 8.37744 8.04952 8.34367 7.96995 8.34367H5.77192C5.69236 8.34367 5.61605 8.37744 5.55979 8.43756C5.50353 8.49767 5.47192 8.57921 5.47192 8.66423V17.6419C5.47192 17.727 5.50353 17.8085 5.55979 17.8686C5.61605 17.9287 5.69236 17.9625 5.77192 17.9625Z" fill="white"/>
</g>
</svg>
