<svg width="206" height="63" viewBox="0 0 206 63" fill="none" xmlns="http://www.w3.org/2000/svg">
<path d="M9.92773 38.2227C8.42122 38.6797 7.66797 39.179 7.66797 39.7207C7.66797 40.2454 8.10807 40.6094 8.98828 40.8125C10.6979 41.2188 13.0508 41.4642 16.0469 41.5488C19.043 41.6165 21.2943 41.8451 22.8008 42.2344C24.3242 42.6068 25.5345 43.0807 26.4316 43.6562C28.0566 44.7227 28.8691 46.1361 28.8691 47.8965C28.8691 50.097 27.7773 51.8828 25.5938 53.2539C23.1732 54.7604 19.7624 55.5137 15.3613 55.5137C10.8079 55.5137 7.05013 54.8366 4.08789 53.4824C3.02148 52.9577 2.48828 52.3652 2.48828 51.7051C2.48828 51.4173 2.58984 51.1888 2.79297 51.0195C3.01302 50.8503 3.24154 50.7656 3.47852 50.7656C3.76628 50.7656 4.09635 50.8757 4.46875 51.0957C5.33203 51.5866 6.1276 51.9928 6.85547 52.3145C7.60026 52.653 8.75977 52.9746 10.334 53.2793C11.9082 53.584 13.4232 53.7363 14.8789 53.7363C16.3516 53.7363 17.5449 53.6686 18.459 53.5332C19.39 53.4147 20.1602 53.2708 20.7695 53.1016C21.9714 52.7461 22.5723 52.3483 22.5723 51.9082C22.5723 51.502 22.4538 51.2057 22.2168 51.0195C21.9798 50.8333 21.6667 50.6641 21.2773 50.5117C20.9049 50.3763 20.3802 50.2493 19.7031 50.1309C18.3151 49.8939 16.4277 49.7161 14.041 49.5977C11.6543 49.4792 9.76693 49.2422 8.37891 48.8867C6.99089 48.5482 5.85677 48.1081 4.97656 47.5664C3.26693 46.5339 2.41211 45.1374 2.41211 43.377C2.41211 40.8379 4.13021 38.7812 7.56641 37.207C5.99219 36.3438 4.73958 35.2096 3.80859 33.8047C2.8776 32.3828 2.41211 30.8509 2.41211 29.209C2.41211 27.5501 2.7168 26.1198 3.32617 24.918C3.95247 23.6992 4.82422 22.6497 5.94141 21.7695C8.29427 19.8737 11.3327 18.9258 15.0566 18.9258C16.7155 18.9258 18.3828 19.1797 20.0586 19.6875C22.4622 17.3685 24.6882 16.209 26.7363 16.209C27.5996 16.209 28.2344 16.3529 28.6406 16.6406C29.0638 16.9284 29.2754 17.2923 29.2754 17.7324C29.2754 18.1725 29.1315 18.4941 28.8438 18.6973C28.556 18.8835 28.2852 18.9766 28.0312 18.9766C27.5742 18.9766 27.1849 18.9258 26.8633 18.8242C26.3893 18.6549 25.9069 18.5703 25.416 18.5703C24.502 18.5703 23.3509 19.2051 21.9629 20.4746C24.722 21.8288 26.5247 23.7754 27.3711 26.3145C27.6419 27.1608 27.7773 28.2018 27.7773 29.4375C27.7773 30.6562 27.4219 31.875 26.7109 33.0938C26 34.3125 25.0521 35.362 23.8672 36.2422C21.3958 38.0703 18.4928 38.9844 15.1582 38.9844C13.3978 39.0182 11.6543 38.7643 9.92773 38.2227ZM15.2598 37.1309C18.002 37.097 20.3633 36.4284 22.3438 35.125C24.6289 33.6354 25.7715 31.6211 25.7715 29.082C25.7715 26.543 24.6458 24.4948 22.3945 22.9375C20.3294 21.5156 17.9512 20.7793 15.2598 20.7285V37.1309ZM34.516 46.9824C34.279 46.9824 34.059 46.8809 33.8559 46.6777C33.6527 46.4915 33.5512 46.263 33.5512 45.9922C33.5512 45.4505 33.8559 44.9512 34.4652 44.4941C35.0746 44.0371 35.5147 43.6224 35.7855 43.25C35.7855 43.25 38.0284 40.4993 42.5141 34.998L33.1703 19.3828H44.723L50.1059 28.3457C53.2374 24.3171 54.9216 22.1165 55.1586 21.7441C55.6156 21.0332 55.9203 20.4831 56.0727 20.0938C56.3943 19.3151 56.8428 18.9258 57.4184 18.9258C57.6892 18.9258 57.9262 19.0189 58.1293 19.2051C58.3493 19.3743 58.4594 19.5859 58.4594 19.8398C58.4594 20.0938 58.4086 20.3477 58.307 20.6016C58.2224 20.8555 58.0701 21.1771 57.85 21.5664C57.4099 22.3112 56.6397 23.3861 55.5395 24.791L51.2484 30.25L61.0238 46.5H49.4203L43.6312 36.8516L37.4359 44.6465C36.3695 45.9837 35.6078 46.737 35.1508 46.9062C34.9815 46.957 34.7699 46.9824 34.516 46.9824ZM133.631 40.3301C134.291 40.3301 134.621 40.6348 134.621 41.2441C134.621 41.7012 134.325 42.2428 133.732 42.8691C131.058 45.6113 127.393 46.9824 122.738 46.9824C118.557 46.9824 115.036 45.7214 112.176 43.1992C109.214 40.5755 107.732 37.2578 107.732 33.2461C107.732 29.1497 109.07 25.7812 111.744 23.1406C114.571 20.3307 118.329 18.9258 123.018 18.9258C126.775 18.9258 129.932 20.0684 132.488 22.3535C135.247 24.8079 136.627 28.0326 136.627 32.0273C136.627 32.6029 136.61 33.2122 136.576 33.8555H119.818V44.748C120.969 44.985 122.264 45.1035 123.703 45.1035C126.75 45.1035 129.348 44.0964 131.498 42.082C131.938 41.6419 132.251 41.2949 132.438 41.041C132.827 40.5671 133.225 40.3301 133.631 40.3301ZM126.852 21.2617C125.751 20.9401 124.507 20.7793 123.119 20.7793C121.731 20.7793 120.631 20.8724 119.818 21.0586V32.002H126.852V21.2617ZM145.676 19.3828H156.594V27.3555C157.762 24.4609 159.015 22.3366 160.352 20.9824C161.706 19.6113 163.06 18.9258 164.414 18.9258C165.176 18.9258 165.777 19.1289 166.217 19.5352C166.674 19.9245 166.903 20.3646 166.903 20.8555C166.903 21.3464 166.835 21.7357 166.7 22.0234C166.564 22.3112 166.386 22.5566 166.166 22.7598C165.709 23.1829 165.278 23.3945 164.871 23.3945C164.228 23.3945 163.754 23.3268 163.45 23.1914C162.925 22.9544 162.459 22.8359 162.053 22.8359C161.647 22.8359 161.131 23.166 160.504 23.8262C159.878 24.4694 159.277 25.3665 158.702 26.5176C157.297 29.3275 156.594 32.3743 156.594 35.6582V46.5H145.676V19.3828ZM183.239 46.9824C176.604 46.9824 173.286 43.9525 173.286 37.8926L173.261 21.2363L170.341 21.3633C169.427 21.3633 168.97 21.0163 168.97 20.3223C168.97 19.6283 169.46 19.2812 170.442 19.2812L172.88 19.3828H173.261V15.4473L184.153 10.5723V19.3828H187.555L189.968 19.2812C190.966 19.2812 191.466 19.6367 191.466 20.3477C191.466 20.6693 191.322 20.9232 191.034 21.1094C190.763 21.2786 190.45 21.3633 190.095 21.3633L186.946 21.2363H184.153V45.1035C186.134 45.0697 187.784 44.5026 189.104 43.4023C189.731 42.9284 190.171 42.319 190.425 41.5742C190.695 40.8294 190.932 40.3555 191.136 40.1523C191.356 39.9323 191.61 39.8223 191.897 39.8223C192.185 39.8223 192.43 39.9408 192.634 40.1777C192.837 40.3978 192.938 40.6686 192.938 40.9902C192.938 41.2949 192.854 41.6419 192.684 42.0312C192.515 42.4036 192.261 42.8014 191.923 43.2246C191.161 44.1725 190.281 44.9258 189.282 45.4844C187.471 46.4831 185.457 46.9824 183.239 46.9824Z" fill="black" style="fill:black;fill-opacity:1;"/>
<rect x="74" y="14" width="32" height="29" rx="14.5" fill="#0A66C2" style="fill:#0A66C2;fill:color(display-p3 0.0392 0.4000 0.7608);fill-opacity:1;"/>
<g filter="url(#filter0_b_281_36)">
<path d="M80.75 20H87.5C88.0822 20 88.6563 20.1431 89.1771 20.4179C89.6978 20.6927 90.1507 21.0917 90.5 21.5833C90.8493 21.0917 91.3022 20.6927 91.823 20.4179C92.3437 20.1431 92.9178 20 93.5 20H100.25C100.449 20 100.64 20.0834 100.78 20.2319C100.921 20.3803 101 20.5817 101 20.7917V35.0417C101 35.2516 100.921 35.453 100.78 35.6015C100.64 35.7499 100.449 35.8333 100.25 35.8333H93.5C92.9033 35.8333 92.331 36.0836 91.909 36.529C91.4871 36.9744 91.25 37.5784 91.25 38.2083C91.25 38.4183 91.171 38.6197 91.0303 38.7681C90.8897 38.9166 90.6989 39 90.5 39C90.3011 39 90.1103 38.9166 89.9697 38.7681C89.829 38.6197 89.75 38.4183 89.75 38.2083C89.75 37.5784 89.5129 36.9744 89.091 36.529C88.669 36.0836 88.0967 35.8333 87.5 35.8333H80.75C80.5511 35.8333 80.3603 35.7499 80.2197 35.6015C80.079 35.453 80 35.2516 80 35.0417V20.7917C80 20.5817 80.079 20.3803 80.2197 20.2319C80.3603 20.0834 80.5511 20 80.75 20ZM93.5 34.25H99.5V21.5833H93.5C92.9033 21.5833 92.331 21.8336 91.909 22.279C91.4871 22.7244 91.25 23.3284 91.25 23.9583V35.0417C91.8985 34.5266 92.6884 34.2486 93.5 34.25ZM81.5 34.25H87.5C88.3116 34.2486 89.1015 34.5266 89.75 35.0417V23.9583C89.75 23.3284 89.5129 22.7244 89.091 22.279C88.669 21.8336 88.0967 21.5833 87.5 21.5833H81.5V34.25ZM87.5 23.9583H83.75C83.5511 23.9583 83.3603 24.0417 83.2197 24.1902C83.079 24.3387 83 24.54 83 24.75C83 24.96 83.079 25.1613 83.2197 25.3098C83.3603 25.4583 83.5511 25.5417 83.75 25.5417H87.5C87.6989 25.5417 87.8897 25.4583 88.0303 25.3098C88.171 25.1613 88.25 24.96 88.25 24.75C88.25 24.54 88.171 24.3387 88.0303 24.1902C87.8897 24.0417 87.6989 23.9583 87.5 23.9583ZM83 27.9167C83 28.1266 83.079 28.328 83.2197 28.4765C83.3603 28.6249 83.5511 28.7083 83.75 28.7083H87.5C87.6989 28.7083 87.8897 28.6249 88.0303 28.4765C88.171 28.328 88.25 28.1266 88.25 27.9167C88.25 27.7067 88.171 27.5053 88.0303 27.3569C87.8897 27.2084 87.6989 27.125 87.5 27.125H83.75C83.5511 27.125 83.3603 27.2084 83.2197 27.3569C83.079 27.5053 83 27.7067 83 27.9167ZM83 31.0833C83 31.2933 83.079 31.4947 83.2197 31.6431C83.3603 31.7916 83.5511 31.875 83.75 31.875H87.5C87.6989 31.875 87.8897 31.7916 88.0303 31.6431C88.171 31.4947 88.25 31.2933 88.25 31.0833C88.25 30.8734 88.171 30.672 88.0303 30.5235C87.8897 30.3751 87.6989 30.2917 87.5 30.2917H83.75C83.5511 30.2917 83.3603 30.3751 83.2197 30.5235C83.079 30.672 83 30.8734 83 31.0833Z" fill="white" style="fill:white;fill-opacity:1;"/>
</g>
<path d="M70 17H77V46H70V17Z" fill="black" style="fill:black;fill-opacity:1;"/>
<path d="M201.918 45.4435C201.775 45.4997 201.626 45.5291 201.468 45.5318C201.31 45.5345 201.167 45.5065 201.037 45.4479C200.903 45.3857 200.785 45.2982 200.683 45.1853C200.461 44.9456 200.346 44.6432 200.34 44.278C200.333 43.9021 200.452 43.5957 200.695 43.3587C200.917 43.14 201.18 43.0281 201.484 43.0229C201.788 43.0176 202.045 43.135 202.253 43.375C202.468 43.6219 202.579 43.9209 202.585 44.2717C202.595 44.866 202.373 45.2566 201.918 45.4435ZM202.05 39.0597C202.079 38.8908 202.093 38.7223 202.09 38.554C202.087 38.3822 202.071 38.2177 202.044 38.0606C202.012 37.9 201.97 37.7485 201.918 37.6061C201.805 37.3037 201.665 37.0608 201.497 36.8774C201.38 36.7469 201.321 36.6512 201.32 36.5904C201.318 36.4543 201.377 36.3853 201.499 36.3832C201.621 36.3811 201.768 36.4896 201.94 36.7087C202.292 37.2183 202.475 37.8347 202.487 38.5579C202.503 39.4995 202.234 40.2652 201.678 40.8549C201.129 41.4337 200.409 41.7308 199.518 41.7461C198.673 41.7605 197.969 41.47 197.408 40.8744C196.853 40.2823 196.568 39.5315 196.552 38.6221C196.544 38.103 196.642 37.6017 196.849 37.1183C197 36.7504 197.16 36.565 197.328 36.5621C197.4 36.5609 197.456 36.5814 197.496 36.6237C197.532 36.6625 197.551 36.7069 197.552 36.7571C197.553 36.8322 197.514 36.9296 197.433 37.0492C197.215 37.2857 197.066 37.6339 196.984 38.0937C196.954 38.2589 196.941 38.44 196.945 38.6369C196.948 38.8338 196.965 39.0036 196.997 39.1463L202.05 39.0597ZM199.431 35.468C199.002 35.4754 198.61 35.4051 198.257 35.2572C197.9 35.1057 197.588 34.8962 197.322 34.6286C196.753 34.051 196.461 33.3183 196.446 32.4304C196.431 31.5246 196.708 30.7821 197.278 30.2029C197.817 29.6493 198.505 29.3653 199.343 29.351C200.184 29.3365 200.892 29.6037 201.467 30.1525C202.061 30.7189 202.365 31.4515 202.381 32.3501C202.396 33.2272 202.131 33.9588 201.586 34.5447C201.023 35.1453 200.305 35.453 199.431 35.468ZM201.981 32.5074C201.984 32.4787 201.985 32.45 201.984 32.4213L201.983 32.3462C201.971 31.623 201.737 31.02 201.281 30.5371C200.788 30.0227 200.15 29.7722 199.366 29.7857C198.6 29.7988 197.983 30.0547 197.515 30.5534C197.051 31.0448 196.825 31.6736 196.839 32.4398L196.84 32.5203C196.84 32.5454 196.843 32.5704 196.847 32.5954L201.981 32.5074ZM197.839 21.5555C197.925 21.5469 198.011 21.5418 198.097 21.5403L202.092 21.4718L202.132 23.7757L196.922 23.865C196.905 23.9047 196.897 23.9514 196.898 24.0051L196.901 24.177C196.906 24.4562 197.103 24.7787 197.492 25.1445C197.612 25.257 197.745 25.364 197.89 25.4654L202.159 25.3921L202.199 27.7014L196.464 27.7997L196.424 25.4905L197.289 25.4757C196.637 24.8816 196.305 24.2105 196.292 23.4622C196.276 22.4955 196.624 21.8933 197.336 21.6555C196.976 21.3536 196.704 21.0199 196.518 20.6542C196.329 20.285 196.232 19.9124 196.225 19.5365C196.214 18.8956 196.358 18.4187 196.657 18.1055C196.956 17.7924 197.414 17.6306 198.029 17.62L202.025 17.5515L202.064 19.8554L196.85 19.9448C196.836 19.9773 196.83 20.0579 196.833 20.1868C196.835 20.3157 196.862 20.4352 196.914 20.5453C196.962 20.6519 197.03 20.7618 197.118 20.8749C197.305 21.1224 197.545 21.3492 197.839 21.5555Z" fill="black" style="fill:black;fill-opacity:1;"/>
<defs>
<filter id="filter0_b_281_36" x="76" y="16" width="29" height="27" filterUnits="userSpaceOnUse" color-interpolation-filters="sRGB">
<feFlood flood-opacity="0" result="BackgroundImageFix"/>
<feGaussianBlur in="BackgroundImageFix" stdDeviation="2"/>
<feComposite in2="SourceAlpha" operator="in" result="effect1_backgroundBlur_281_36"/>
<feBlend mode="normal" in="SourceGraphic" in2="effect1_backgroundBlur_281_36" result="shape"/>
</filter>
</defs>
</svg>
