<svg width="206" height="63" viewBox="0 0 206 63" fill="none" xmlns="http://www.w3.org/2000/svg">
<path d="M9.92773 38.2227C8.42122 38.6797 7.66797 39.179 7.66797 39.7207C7.66797 40.2454 8.10807 40.6094 8.98828 40.8125C10.6979 41.2188 13.0508 41.4642 16.0469 41.5488C19.043 41.6165 21.2943 41.8451 22.8008 42.2344C24.3242 42.6068 25.5345 43.0807 26.4316 43.6562C28.0566 44.7227 28.8691 46.1361 28.8691 47.8965C28.8691 50.097 27.7773 51.8828 25.5938 53.2539C23.1732 54.7604 19.7624 55.5137 15.3613 55.5137C10.8079 55.5137 7.05013 54.8366 4.08789 53.4824C3.02148 52.9577 2.48828 52.3652 2.48828 51.7051C2.48828 51.4173 2.58984 51.1888 2.79297 51.0195C3.01302 50.8503 3.24154 50.7656 3.47852 50.7656C3.76628 50.7656 4.09635 50.8757 4.46875 51.0957C5.33203 51.5866 6.1276 51.9928 6.85547 52.3145C7.60026 52.653 8.75977 52.9746 10.334 53.2793C11.9082 53.584 13.4232 53.7363 14.8789 53.7363C16.3516 53.7363 17.5449 53.6686 18.459 53.5332C19.39 53.4147 20.1602 53.2708 20.7695 53.1016C21.9714 52.7461 22.5723 52.3483 22.5723 51.9082C22.5723 51.502 22.4538 51.2057 22.2168 51.0195C21.9798 50.8333 21.6667 50.6641 21.2773 50.5117C20.9049 50.3763 20.3802 50.2493 19.7031 50.1309C18.3151 49.8939 16.4277 49.7161 14.041 49.5977C11.6543 49.4792 9.76693 49.2422 8.37891 48.8867C6.99089 48.5482 5.85677 48.1081 4.97656 47.5664C3.26693 46.5339 2.41211 45.1374 2.41211 43.377C2.41211 40.8379 4.13021 38.7812 7.56641 37.207C5.99219 36.3438 4.73958 35.2096 3.80859 33.8047C2.8776 32.3828 2.41211 30.8509 2.41211 29.209C2.41211 27.5501 2.7168 26.1198 3.32617 24.918C3.95247 23.6992 4.82422 22.6497 5.94141 21.7695C8.29427 19.8737 11.3327 18.9258 15.0566 18.9258C16.7155 18.9258 18.3828 19.1797 20.0586 19.6875C22.4622 17.3685 24.6882 16.209 26.7363 16.209C27.5996 16.209 28.2344 16.3529 28.6406 16.6406C29.0638 16.9284 29.2754 17.2923 29.2754 17.7324C29.2754 18.1725 29.1315 18.4941 28.8438 18.6973C28.556 18.8835 28.2852 18.9766 28.0312 18.9766C27.5742 18.9766 27.1849 18.9258 26.8633 18.8242C26.3893 18.6549 25.9069 18.5703 25.416 18.5703C24.502 18.5703 23.3509 19.2051 21.9629 20.4746C24.722 21.8288 26.5247 23.7754 27.3711 26.3145C27.6419 27.1608 27.7773 28.2018 27.7773 29.4375C27.7773 30.6562 27.4219 31.875 26.7109 33.0938C26 34.3125 25.0521 35.362 23.8672 36.2422C21.3958 38.0703 18.4928 38.9844 15.1582 38.9844C13.3978 39.0182 11.6543 38.7643 9.92773 38.2227ZM15.2598 37.1309C18.002 37.097 20.3633 36.4284 22.3438 35.125C24.6289 33.6354 25.7715 31.6211 25.7715 29.082C25.7715 26.543 24.6458 24.4948 22.3945 22.9375C20.3294 21.5156 17.9512 20.7793 15.2598 20.7285V37.1309ZM34.516 46.9824C34.279 46.9824 34.059 46.8809 33.8559 46.6777C33.6527 46.4915 33.5512 46.263 33.5512 45.9922C33.5512 45.4505 33.8559 44.9512 34.4652 44.4941C35.0746 44.0371 35.5147 43.6224 35.7855 43.25C35.7855 43.25 38.0284 40.4993 42.5141 34.998L33.1703 19.3828H44.723L50.1059 28.3457C53.2374 24.3171 54.9216 22.1165 55.1586 21.7441C55.6156 21.0332 55.9203 20.4831 56.0727 20.0938C56.3943 19.3151 56.8428 18.9258 57.4184 18.9258C57.6892 18.9258 57.9262 19.0189 58.1293 19.2051C58.3493 19.3743 58.4594 19.5859 58.4594 19.8398C58.4594 20.0938 58.4086 20.3477 58.307 20.6016C58.2224 20.8555 58.0701 21.1771 57.85 21.5664C57.4099 22.3112 56.6397 23.3861 55.5395 24.791L51.2484 30.25L61.0238 46.5H49.4203L43.6312 36.8516L37.4359 44.6465C36.3695 45.9837 35.6078 46.737 35.1508 46.9062C34.9815 46.957 34.7699 46.9824 34.516 46.9824ZM133.631 40.3301C134.291 40.3301 134.621 40.6348 134.621 41.2441C134.621 41.7012 134.325 42.2428 133.732 42.8691C131.058 45.6113 127.393 46.9824 122.738 46.9824C118.557 46.9824 115.036 45.7214 112.176 43.1992C109.214 40.5755 107.732 37.2578 107.732 33.2461C107.732 29.1497 109.07 25.7812 111.744 23.1406C114.571 20.3307 118.329 18.9258 123.018 18.9258C126.775 18.9258 129.932 20.0684 132.488 22.3535C135.247 24.8079 136.627 28.0326 136.627 32.0273C136.627 32.6029 136.61 33.2122 136.576 33.8555H119.818V44.748C120.969 44.985 122.264 45.1035 123.703 45.1035C126.75 45.1035 129.348 44.0964 131.498 42.082C131.938 41.6419 132.251 41.2949 132.438 41.041C132.827 40.5671 133.225 40.3301 133.631 40.3301ZM126.852 21.2617C125.751 20.9401 124.507 20.7793 123.119 20.7793C121.731 20.7793 120.631 20.8724 119.818 21.0586V32.002H126.852V21.2617ZM145.676 19.3828H156.594V27.3555C157.762 24.4609 159.015 22.3366 160.352 20.9824C161.706 19.6113 163.06 18.9258 164.414 18.9258C165.176 18.9258 165.777 19.1289 166.217 19.5352C166.674 19.9245 166.903 20.3646 166.903 20.8555C166.903 21.3464 166.835 21.7357 166.7 22.0234C166.564 22.3112 166.386 22.5566 166.166 22.7598C165.709 23.1829 165.278 23.3945 164.871 23.3945C164.228 23.3945 163.754 23.3268 163.45 23.1914C162.925 22.9544 162.459 22.8359 162.053 22.8359C161.647 22.8359 161.131 23.166 160.504 23.8262C159.878 24.4694 159.277 25.3665 158.702 26.5176C157.297 29.3275 156.594 32.3743 156.594 35.6582V46.5H145.676V19.3828ZM183.239 46.9824C176.604 46.9824 173.286 43.9525 173.286 37.8926L173.261 21.2363L170.341 21.3633C169.427 21.3633 168.97 21.0163 168.97 20.3223C168.97 19.6283 169.46 19.2812 170.442 19.2812L172.88 19.3828H173.261V15.4473L184.153 10.5723V19.3828H187.555L189.968 19.2812C190.966 19.2812 191.466 19.6367 191.466 20.3477C191.466 20.6693 191.322 20.9232 191.034 21.1094C190.763 21.2786 190.45 21.3633 190.095 21.3633L186.946 21.2363H184.153V45.1035C186.134 45.0697 187.784 44.5026 189.104 43.4023C189.731 42.9284 190.171 42.319 190.425 41.5742C190.695 40.8294 190.932 40.3555 191.136 40.1523C191.356 39.9323 191.61 39.8223 191.897 39.8223C192.185 39.8223 192.43 39.9408 192.634 40.1777C192.837 40.3978 192.938 40.6686 192.938 40.9902C192.938 41.2949 192.854 41.6419 192.684 42.0312C192.515 42.4036 192.261 42.8014 191.923 43.2246C191.161 44.1725 190.281 44.9258 189.282 45.4844C187.471 46.4831 185.457 46.9824 183.239 46.9824Z" fill="black" style="fill:black;fill-opacity:1;"/>
<rect x="74" y="14" width="32" height="29" rx="14.5" fill="#0A66C2" style="fill:#0A66C2;fill:color(display-p3 0.0392 0.4000 0.7608);fill-opacity:1;"/>
<g filter="url(#filter0_b_281_36)">
<path d="M80.75 20H87.5C88.0822 20 88.6563 20.1431 89.1771 20.4179C89.6978 20.6927 90.1507 21.0917 90.5 21.5833C90.8493 21.0917 91.3022 20.6927 91.823 20.4179C92.3437 20.1431 92.9178 20 93.5 20H100.25C100.449 20 100.64 20.0834 100.78 20.2319C100.921 20.3803 101 20.5817 101 20.7917V35.0417C101 35.2516 100.921 35.453 100.78 35.6015C100.64 35.7499 100.449 35.8333 100.25 35.8333H93.5C92.9033 35.8333 92.331 36.0836 91.909 36.529C91.4871 36.9744 91.25 37.5784 91.25 38.2083C91.25 38.4183 91.171 38.6197 91.0303 38.7681C90.8897 38.9166 90.6989 39 90.5 39C90.3011 39 90.1103 38.9166 89.9697 38.7681C89.829 38.6197 89.75 38.4183 89.75 38.2083C89.75 37.5784 89.5129 36.9744 89.091 36.529C88.669 36.0836 88.0967 35.8333 87.5 35.8333H80.75C80.5511 35.8333 80.3603 35.7499 80.2197 35.6015C80.079 35.453 80 35.2516 80 35.0417V20.7917C80 20.5817 80.079 20.3803 80.2197 20.2319C80.3603 20.0834 80.5511 20 80.75 20ZM93.5 34.25H99.5V21.5833H93.5C92.9033 21.5833 92.331 21.8336 91.909 22.279C91.4871 22.7244 91.25 23.3284 91.25 23.9583V35.0417C91.8985 34.5266 92.6884 34.2486 93.5 34.25ZM81.5 34.25H87.5C88.3116 34.2486 89.1015 34.5266 89.75 35.0417V23.9583C89.75 23.3284 89.5129 22.7244 89.091 22.279C88.669 21.8336 88.0967 21.5833 87.5 21.5833H81.5V34.25ZM87.5 23.9583H83.75C83.5511 23.9583 83.3603 24.0417 83.2197 24.1902C83.079 24.3387 83 24.54 83 24.75C83 24.96 83.079 25.1613 83.2197 25.3098C83.3603 25.4583 83.5511 25.5417 83.75 25.5417H87.5C87.6989 25.5417 87.8897 25.4583 88.0303 25.3098C88.171 25.1613 88.25 24.96 88.25 24.75C88.25 24.54 88.171 24.3387 88.0303 24.1902C87.8897 24.0417 87.6989 23.9583 87.5 23.9583ZM83 27.9167C83 28.1266 83.079 28.328 83.2197 28.4765C83.3603 28.6249 83.5511 28.7083 83.75 28.7083H87.5C87.6989 28.7083 87.8897 28.6249 88.0303 28.4765C88.171 28.328 88.25 28.1266 88.25 27.9167C88.25 27.7067 88.171 27.5053 88.0303 27.3569C87.8897 27.2084 87.6989 27.125 87.5 27.125H83.75C83.5511 27.125 83.3603 27.2084 83.2197 27.3569C83.079 27.5053 83 27.7067 83 27.9167ZM83 31.0833C83 31.2933 83.079 31.4947 83.2197 31.6431C83.3603 31.7916 83.5511 31.875 83.75 31.875H87.5C87.6989 31.875 87.8897 31.7916 88.0303 31.6431C88.171 31.4947 88.25 31.2933 88.25 31.0833C88.25 30.8734 88.171 30.672 88.0303 30.5235C87.8897 30.3751 87.6989 30.2917 87.5 30.2917H83.75C83.5511 30.2917 83.3603 30.3751 83.2197 30.5235C83.079 30.672 83 30.8734 83 31.0833Z" fill="white" style="fill:white;fill-opacity:1;"/>
</g>
<path d="M70 17H77V46H70V17Z" fill="black" style="fill:black;fill-opacity:1;"/>
<path d="M98.1758 13.3762C98.0769 13.1163 98.0268 12.8431 98.0254 12.5566C98.024 12.2702 98.0781 12.0095 98.1876 11.7746C98.3036 11.5331 98.4654 11.3207 98.6728 11.1374C99.1136 10.7382 99.666 10.5369 100.33 10.5337C101.014 10.5304 101.568 10.7523 101.993 11.1995C102.386 11.6077 102.584 12.0886 102.586 12.6419C102.589 13.1953 102.37 13.6586 101.929 14.0319C101.475 14.4182 100.929 14.6129 100.291 14.616C99.2105 14.6212 98.5054 14.208 98.1758 13.3762ZM110.579 13.7555C110.885 13.8127 111.191 13.8405 111.497 13.839C111.81 13.8375 112.109 13.8132 112.395 13.7663C112.688 13.7128 112.965 13.6398 113.224 13.5474C113.777 13.3494 114.222 13.0999 114.559 12.7987C114.799 12.5892 114.974 12.4842 115.085 12.4837C115.332 12.4825 115.456 12.5926 115.457 12.8139C115.458 13.0353 115.258 13.2999 114.856 13.6079C113.921 14.2374 112.796 14.5553 111.481 14.5617C109.769 14.57 108.383 14.0624 107.324 13.0389C106.283 12.0283 105.759 10.7125 105.752 9.09139C105.744 7.55495 106.288 6.28277 107.384 5.27484C108.472 4.27997 109.844 3.77852 111.497 3.7705C112.441 3.76593 113.351 3.95684 114.225 4.34323C114.89 4.62646 115.224 4.92107 115.225 5.22706C115.226 5.35727 115.187 5.45837 115.109 5.53036C115.038 5.59581 114.957 5.62876 114.866 5.6292C114.729 5.62986 114.553 5.55584 114.337 5.40715C113.912 5.00556 113.283 4.7254 112.449 4.56668C112.149 4.50954 111.82 4.48184 111.462 4.48358C111.104 4.48531 110.795 4.51285 110.534 4.5662L110.579 13.7555ZM128.767 9.01888C128.763 8.23764 128.9 7.52733 129.177 6.88796C129.46 6.24205 129.848 5.68027 130.34 5.20261C131.403 4.18182 132.742 3.66752 134.357 3.65969C136.004 3.6517 137.347 4.17254 138.388 5.2222C139.382 6.21348 139.883 7.47083 139.89 8.99425C139.898 10.5242 139.396 11.8059 138.385 12.8395C137.342 13.9057 136.004 14.4428 134.37 14.4508C132.775 14.4585 131.451 13.9604 130.398 12.9563C129.318 11.9199 128.775 10.6074 128.767 9.01888ZM134.093 13.7197C134.145 13.7259 134.197 13.7289 134.249 13.7287L134.386 13.728C135.701 13.7216 136.802 13.3094 137.69 12.4913C138.637 11.6078 139.106 10.4531 139.099 9.02738C139.093 7.63417 138.641 6.50679 137.745 5.64524C136.862 4.79013 135.724 4.36596 134.331 4.37271L134.184 4.37342C134.139 4.37364 134.093 4.37712 134.048 4.38385L134.093 13.7197ZM165.696 6.37889C165.71 6.53507 165.717 6.69129 165.718 6.84754L165.753 14.1131L161.564 14.1334L161.518 4.66084C161.446 4.62864 161.361 4.61277 161.264 4.61324L160.951 4.61476C160.443 4.61722 159.853 4.9684 159.179 5.66828C158.972 5.88414 158.774 6.12273 158.587 6.38405L158.624 14.1476L154.425 14.168L154.375 3.73843L158.574 3.71807L158.581 5.29032C159.676 4.11963 160.904 3.53099 162.264 3.5244C164.022 3.51588 165.109 4.16165 165.526 5.46173C166.083 4.8145 166.695 4.32649 167.364 3.99773C168.04 3.66242 168.719 3.4931 169.403 3.48979C170.568 3.48414 171.432 3.75665 171.995 4.30731C172.557 4.85798 172.841 5.6932 172.847 6.81298L172.882 14.0785L168.693 14.0988L168.647 4.61652C168.588 4.59076 168.441 4.57845 168.207 4.57958C167.973 4.58072 167.755 4.62735 167.553 4.71947C167.359 4.80506 167.157 4.92647 166.95 5.08373C166.496 5.41797 166.078 5.84969 165.696 6.37889Z" fill="black" style="fill:black;fill-opacity:1;"/>
<defs>
<filter id="filter0_b_281_36" x="76" y="16" width="29" height="27" filterUnits="userSpaceOnUse" color-interpolation-filters="sRGB">
<feFlood flood-opacity="0" result="BackgroundImageFix"/>
<feGaussianBlur in="BackgroundImageFix" stdDeviation="2"/>
<feComposite in2="SourceAlpha" operator="in" result="effect1_backgroundBlur_281_36"/>
<feBlend mode="normal" in="SourceGraphic" in2="effect1_backgroundBlur_281_36" result="shape"/>
</filter>
</defs>
</svg>
