<svg width="20" height="20" viewBox="0 0 20 20" fill="none" xmlns="http://www.w3.org/2000/svg">
<path id="Vector" fill-rule="evenodd" clip-rule="evenodd" d="M10.7922 0.530622C10.7224 0.372207 10.6106 0.238046 10.4703 0.14401C10.3299 0.0499743 10.1667 0 10 0C9.83333 0 9.67014 0.0499743 9.52975 0.14401C9.38935 0.238046 9.27763 0.372207 9.2078 0.530622L6.70382 6.211L0.770163 6.94798C0.604613 6.96845 0.448127 7.03812 0.319227 7.14877C0.190327 7.25942 0.0944087 7.4064 0.0428237 7.57233C-0.00876135 7.73825 -0.0138533 7.91618 0.0281503 8.08504C0.070154 8.2539 0.157495 8.40663 0.279836 8.52516L4.66835 12.7717L3.5036 18.9087C3.47125 19.0798 3.48638 19.257 3.54718 19.4194C3.60799 19.5817 3.71193 19.7225 3.84673 19.825C3.98154 19.9275 4.14155 19.9874 4.30787 19.9977C4.47418 20.008 4.63984 19.9683 4.78526 19.8832L10 16.8275L15.2147 19.8832C15.3602 19.9686 15.5261 20.0086 15.6927 19.9984C15.8593 19.9882 16.0195 19.9282 16.1545 19.8256C16.2895 19.7229 16.3936 19.5819 16.4543 19.4192C16.515 19.2566 16.53 19.0791 16.4973 18.9078L15.3325 12.7727L19.7202 8.52516C19.8425 8.40663 19.9298 8.2539 19.9718 8.08504C20.0139 7.91618 20.0088 7.73825 19.9572 7.57233C19.9056 7.4064 19.8097 7.25942 19.6808 7.14877C19.5519 7.03812 19.3954 6.96845 19.2298 6.94798L13.2953 6.21008L10.7922 0.530622Z" fill="#0FA958"/>
</svg>
